#tb 0: 1/22050
0,          0,          0,      736,     2944, 0x00000000
0,        736,        736,     1472,     5888, 0x5ae3c2a4
0,       2208,       2208,     1472,     5888, 0x158fbcb4
0,       3680,       3680,     1472,     5888, 0x3fc85d35
0,       5152,       5152,     1472,     5888, 0x4667ec2b
0,       6624,       6624,     1472,     5888, 0x82744494
0,       8096,       8096,     1472,     5888, 0x3b0cb86f
0,       9568,       9568,     1472,     5888, 0x29493fbb
0,      11040,      11040,     1472,     5888, 0xaa2d8595
0,      12512,      12512,     1472,     5888, 0x2e563de6
0,      13984,      13984,     1472,     5888, 0x225cca99
0,      15456,      15456,     1472,     5888, 0x2b577599
0,      16928,      16928,     1472,     5888, 0x3d967f32
0,      18400,      18400,     1472,     5888, 0x16639a84
0,      19872,      19872,     1472,     5888, 0x90549ba0
0,      21344,      21344,     1472,     5888, 0xf46e6644
0,      22816,      22816,     1472,     5888, 0x39a073ec
0,      24288,      24288,     1472,     5888, 0xb1d7a93a
0,      25760,      25760,     1472,     5888, 0x25e9795b
0,      27232,      27232,     1472,     5888, 0xbbc07644
0,      28704,      28704,     1472,     5888, 0x323f6a1b
0,      30176,      30176,     1472,     5888, 0x7cae130b
0,      31648,      31648,     1472,     5888, 0xd23bf9c6
0,      33120,      33120,     1472,     5888, 0x5f73ef35
0,      34592,      34592,     1472,     5888, 0xc66026be
0,      36064,      36064,     1472,     5888, 0xc8fdb539
0,      37536,      37536,     1472,     5888, 0x94c6bfbd
0,      39008,      39008,     1472,     5888, 0xb77e1b83
0,      40480,      40480,     1472,     5888, 0x6c6d6693
0,      41952,      41952,     1472,     5888, 0xd9f064d4
0,      43424,      43424,     1472,     5888, 0x85dd990d
0,      44896,      44896,     1472,     5888, 0x385e021b
0,      46368,      46368,     1472,     5888, 0xac09fd02
0,      47840,      47840,     1472,     5888, 0xc6dcdff2
0,      49312,      49312,     1472,     5888, 0x86a6944d
0,      50784,      50784,     1472,     5888, 0x8587b964
0,      52256,      52256,     1472,     5888, 0x2b0355ff
0,      53728,      53728,     1472,     5888, 0xe4148a85
0,      55200,      55200,     1472,     5888, 0xdf02ed4f
0,      56672,      56672,     1472,     5888, 0x87a54b15
0,      58144,      58144,     1472,     5888, 0x3ad2be45
0,      59616,      59616,     1472,     5888, 0x3a49c2c3
0,      61088,      61088,     1472,     5888, 0xc2b66404
0,      62560,      62560,     1472,     5888, 0xac3e234a
0,      64032,      64032,     1472,     5888, 0x5dcf523b
0,      65504,      65504,     1472,     5888, 0x2034b5d6
0,      66976,      66976,     1472,     5888, 0x96882832
0,      68448,      68448,     1472,     5888, 0x2be3d534
0,      69920,      69920,     1472,     5888, 0xa841a49d
